<svg xmlns="http://www.w3.org/2000/svg" viewBox="0 0 457.98 417.71"><defs><style>.cls-1{isolation:isolate;}.cls-2{fill:#f7dcbf;}.cls-3{fill:#009a5a;}.cls-4,.cls-5{fill:none;stroke:#241f20;stroke-width:4.92px;}.cls-4{stroke-miterlimit:10;}.cls-5{stroke-linejoin:round;}.cls-6{fill:#fff;opacity:0.4;}.cls-7{fill:#241f20;opacity:0.54;mix-blend-mode:multiply;}</style></defs><title>Email</title><g class="cls-1"><g id="Layer_2" data-name="Layer 2"><g id="Layer_1-2" data-name="Layer 1"><path class="cls-2" d="M88.2,39.15c82.87-70.72,329.06,23.63,364.5,113.06S334.57,234.9,305.89,288.9s-3.38,160.31-126.56,119.81S-38.36,147.15,88.2,39.15Z"/><polygon class="cls-3" points="3.95 259.76 353.9 12.89 317.63 353.32 197.03 279.25 123.89 350.56 122.63 267.18 3.95 259.76"/><polyline class="cls-3" points="122.63 267.18 339.49 34.1 195.41 281.58"/><path class="cls-3" d="M158.53,101.2,136,93.71q-3.25-11.5-6.53-23c-1.17-4.14-6.62-3.7-8,0q-4.2,11.44-8.41,22.87L89.69,101a4.17,4.17,0,0,0,0,8l22.51,7.49q3.26,11.51,6.53,23c1.18,4.14,6.62,3.7,8,0q4.2-11.43,8.41-22.87l23.41-7.44A4.18,4.18,0,0,0,158.53,101.2Z"/><path class="cls-3" d="M102.85,16.83l-9.73-3.67L90.3,3c-1.09-4-6.38-3.84-7.76-.18L78.88,12.5,68.67,15.32c-4,1.1-3.84,6.39-.18,7.76l9.73,3.67L81,37c1.09,4,6.38,3.84,7.76.18l3.66-9.73,10.21-2.82C106.64,23.49,106.51,18.2,102.85,16.83Z"/><polygon class="cls-4" points="7.12 258.6 357.07 11.74 320.8 352.16 200.21 278.09 123.89 349.34 125.81 266.03 7.12 258.6"/><polyline class="cls-5" points="125.81 266.03 356.73 12.89 198.58 280.42"/><polygon class="cls-6" points="122.67 255.48 307.96 54.34 22.1 252.43 122.67 255.48"/><polyline class="cls-6" points="251.28 274.68 354.29 25.08 205.56 276.2 243.05 298.45"/><polygon class="cls-7" points="123.89 344.47 340.88 27.52 199.47 274.98 123.89 344.47"/><path class="cls-3" d="M411.24,284.69,401.51,281l-2.82-10.21c-1.09-4-6.38-3.85-7.76-.18l-3.66,9.73-10.21,2.81c-4,1.1-3.84,6.39-.18,7.77l9.73,3.66,2.82,10.21c1.09,4,6.38,3.84,7.76.18l3.66-9.73,10.21-2.82C415,291.35,414.9,286.07,411.24,284.69Z"/></g></g></g></svg>