<svg xmlns="http://www.w3.org/2000/svg" viewBox="0 0 440.59 417.75"><defs><style>.cls-1{isolation:isolate;}.cls-2{fill:#f7dcbf;}.cls-3{fill:#009a5a;}.cls-4{fill:#241f20;opacity:0.54;mix-blend-mode:multiply;}.cls-5,.cls-6{fill:none;stroke:#241f20;stroke-linecap:round;stroke-linejoin:round;}.cls-5{stroke-width:4.54px;}.cls-6{stroke-width:5.29px;}.cls-7{fill:#fff;opacity:0.4;}</style></defs><title>Home</title><g class="cls-1"><g id="Layer_2" data-name="Layer 2"><g id="Layer_1-2" data-name="Layer 1"><path class="cls-2" d="M.37,247.3C-10.26,137.23,209.81-18.47,304.2,1.8s44.35,128.67,72.43,183.38,86.43,111.08-18.14,192.76S16.62,415.39.37,247.3Z"/><rect class="cls-3" x="114.77" y="129.34" width="213.75" height="153"/><polygon class="cls-3" points="69.64 133.6 228.26 4.22 377.89 130.22 69.64 133.6"/><polygon class="cls-4" points="113.51 283.78 330.07 283.22 330.07 130.22 116.33 130.22 113.51 283.78"/><path class="cls-3" d="M55.52,325.92c-16.94-20.66-58.39-47.6-51.13-68.26s16.94,0,26.62-17.72-9.68-41.33,4.84-56.09S55.22,178,69.74,175,89.1,154.33,106,160.24s4.84,26.57,14.52,35.42,21.79,11.81,21.79,35.43S106,248.8,110.88,263.56,120.56,284.22,123,296s-16.63,28.79-16.63,28.79"/><polyline class="cls-5" points="73.01 133.6 225.84 7.56 373.39 128.53"/><line class="cls-5" x1="113.51" y1="133.6" x2="114.08" y2="162.85"/><line class="cls-5" x1="328.39" y1="131.91" x2="329.51" y2="280.41"/><line class="cls-5" x1="73.24" y1="133.38" x2="373.95" y2="129.1"/><path class="cls-6" d="M56,326.77c-17-20.67-58.39-47.6-51.13-68.27s16.94,0,26.62-17.71-9.68-41.33,4.84-56.09,19.36-5.9,33.88-8.85,19.37-20.67,36.31-14.77,4.84,26.57,14.52,35.43,21.78,11.81,21.78,35.42-36.3,17.72-31.46,32.48,14.37,26.14,10.6,37.41c-10.68,31.92-65.29,25.39-65.29,25.39"/><path class="cls-6" d="M57.88,327.94s10.84-26.3,13.4-57.11,17.86-65,17.86-65"/><line class="cls-6" x1="38.1" y1="291.37" x2="57.88" y2="325.04"/><line class="cls-6" x1="96.25" y1="287.83" x2="57.28" y2="325.76"/><line class="cls-6" x1="96.79" y1="260.56" x2="71.28" y2="270.83"/><line class="cls-6" x1="53.41" y1="209.21" x2="76.38" y2="243.44"/><rect class="cls-3" x="256.39" y="153.85" width="50.62" height="43.87"/><rect class="cls-3" x="134.89" y="149.91" width="50.62" height="46.69"/><polygon class="cls-3" points="192.26 282.17 159.62 301.46 278.32 299.98 262 280.69 192.26 282.17"/><polygon class="cls-7" points="191.15 282.17 158.51 301.46 277.21 299.98 260.89 280.69 191.15 282.17"/><path class="cls-7" d="M153.45,194.91s22.91,12.54,29.25-2.25c3.38-7.88-3.94-21.94,1.13-25.88s0-15.75,0-15.75L136,151.6l.57,43.87Z"/><path class="cls-7" d="M275.51,198s15.31,4.24,30.38-1.4c4.5-1.69-5.06-19.69,0-23.63s0-18.84,0-18.84l-47.81.56.56,43.87Z"/><rect class="cls-5" x="257.14" y="153.38" width="50.01" height="45.47"/><rect class="cls-5" x="134.37" y="148.83" width="50.01" height="50.01"/><line class="cls-5" x1="159.08" y1="149.91" x2="159.08" y2="198.28"/><line class="cls-5" x1="134.89" y1="174.1" x2="182.7" y2="174.1"/><line class="cls-5" x1="281.7" y1="154.97" x2="281.14" y2="198.28"/><line class="cls-5" x1="257.51" y1="175.78" x2="305.33" y2="175.78"/><rect class="cls-3" x="197.94" y="202.41" width="45.47" height="72.75"/><circle class="cls-7" cx="209.85" cy="240.68" r="5.34"/><circle class="cls-5" cx="209.61" cy="240.19" r="5.34"/><rect class="cls-5" x="198.03" y="203.39" width="45.47" height="72.75"/><line class="cls-5" x1="329.08" y1="281.22" x2="118.58" y2="281.22"/><path class="cls-3" d="M417.65,312.23l-22.51-7.49q-3.27-11.49-6.53-23c-1.18-4.15-6.62-3.7-8,0q-4.22,11.43-8.41,22.86L348.81,312a4.18,4.18,0,0,0,0,8l22.51,7.49q3.27,11.5,6.53,23c1.18,4.15,6.63,3.7,8,0l8.4-22.86,23.41-7.45A4.17,4.17,0,0,0,417.65,312.23Z"/><path class="cls-3" d="M437.82,193.19l-9.73-3.67-2.82-10.21c-1.1-4-6.38-3.84-7.76-.18l-3.66,9.73-10.21,2.82a4.06,4.06,0,0,0-.18,7.76l9.73,3.67q1.41,5.1,2.81,10.21c1.1,4,6.39,3.84,7.77.18l3.66-9.73L437.64,201C441.61,199.85,441.48,194.56,437.82,193.19Z"/><path class="cls-3" d="M122.54,39.62,112.81,36,110,25.75c-1.1-4-6.38-3.84-7.76-.18L98.57,35.3,88.36,38.12c-4,1.1-3.85,6.38-.18,7.76l9.73,3.66q1.41,5.12,2.81,10.21c1.1,4,6.39,3.85,7.77.18l3.66-9.73,10.21-2.81C126.33,46.29,126.2,41,122.54,39.62Z"/><path class="cls-3" d="M186.61,301.78s50.07,10.69,55.69,37.13-41.06,13.5-72,30.37-43.87,34.32-43.87,34.32l163.68,3.93s38.32-40.77,12.38-71.43c-18.56-21.94-58.5-33.75-58.5-33.75"/><path class="cls-5" d="M185.51,301.78s50.07,10.69,55.69,37.13-41.06,13.5-72,30.37-43.87,34.32-43.87,34.32L289,407.53s38.32-40.77,12.38-71.43c-18.56-21.94-58.5-33.75-58.5-33.75"/><polygon class="cls-5" points="190.59 282.54 157.95 301.83 276.66 300.35 260.33 281.06 190.59 282.54"/><line class="cls-5" x1="218.7" y1="314.44" x2="260.89" y2="309.38"/><line class="cls-5" x1="238.95" y1="332.16" x2="288.73" y2="327.1"/><line class="cls-5" x1="217.86" y1="358.31" x2="309.83" y2="364.22"/><polygon class="cls-7" points="91.01 125.72 223.76 12.1 129.26 126.85 91.01 125.72"/><path class="cls-7" d="M99.45,170.72s-20.25,13.5-28.12,13.5-19.13-5.62-27,5.63-1.13,27-4.5,45S14,260.72,14,260.72s31.5-7.31,32.63-27-6.75-39.37,7.87-42.19,16.88,2.25,25.88-3.37S99.45,170.72,99.45,170.72Z"/></g></g></g></svg>