<svg xmlns="http://www.w3.org/2000/svg" viewBox="0 0 481.07 422.35"><defs><style>.cls-1{isolation:isolate;}.cls-2{fill:#f7dcbf;}.cls-3{fill:#009a5a;}.cls-4{fill:#fff;opacity:0.4;}.cls-5,.cls-7,.cls-8{fill:none;stroke:#241f20;stroke-linejoin:round;stroke-width:4.54px;}.cls-6{fill:#241f20;opacity:0.54;mix-blend-mode:multiply;}.cls-7,.cls-8{stroke-linecap:round;}.cls-8{stroke-dasharray:14.4;}</style></defs><title>Map</title><g class="cls-1"><g id="Layer_2" data-name="Layer 2"><g id="Layer_1-2" data-name="Layer 1"><path class="cls-2" d="M300.13,418.7C194.26,450.63-1.43,265.21,0,168.67s117.53-68.62,165.7-106.85S257.77-44.64,358.3,42,461.81,369.94,300.13,418.7Z"/><polyline class="cls-3" points="336.2 282.72 337.23 379.13 88.87 379.13 88.87 50.45 337.23 50.45 335.81 125.59"/><polyline class="cls-4" points="326.26 276.79 327.24 371.16 90 371.16 90 49.41 327.24 49.41 325.88 122.97"/><rect class="cls-3" x="87.61" y="325.41" width="247.5" height="27"/><polyline class="cls-5" points="334.14 281.52 335.16 377.93 86.81 377.93 86.81 49.25 335.16 49.25 333.75 124.39"/><path class="cls-5" d="M145.16,342.09c9.14-9.14,12.57-10.28,17.14-9.14s6.85,9.14,14.85,9.14,16-11.43,22.85-10.28,10.28,10.28,19.42,10.28,11.42-11.43,20.56-11.43,17.14,12.57,25.14,11.43S277.69,333,283.4,333"/><circle class="cls-3" cx="365.17" cy="201.29" r="84.46"/><circle class="cls-5" cx="364.81" cy="202.33" r="84.46"/><path class="cls-3" d="M160.43,199.05S89,84.28,163.18,84.28C229.15,84.28,160.43,199.05,160.43,199.05Z"/><circle class="cls-3" cx="161.8" cy="115.89" r="15.12"/><path class="cls-6" d="M162.68,197.93S91.2,83.15,165.43,83.15C231.4,83.15,162.68,197.93,162.68,197.93Z"/><polyline class="cls-7" points="310.43 210.75 345.94 240.76 418.85 167.07"/><circle class="cls-3" cx="162.18" cy="116.19" r="15.12"/><path class="cls-5" d="M161.31,199S89.83,84.2,164.06,84.2C230,84.2,161.31,199,161.31,199Z"/><circle class="cls-5" cx="162.68" cy="115.81" r="15.12"/><path class="cls-8" d="M161.31,199S121.87,223.41,136.49,247s35.23-37.08,83.87-62.62c45-23.62,71.38,40.12,11.76,67.12s8.49,74.63,40,26.26"/><path class="cls-3" d="M430.84,51.14l-22.51-7.48q-3.25-11.5-6.53-23c-1.18-4.15-6.62-3.7-8,0q-4.2,11.43-8.41,22.86L362,51a4.18,4.18,0,0,0,0,8l22.51,7.48q3.25,11.51,6.53,23c1.17,4.15,6.62,3.7,8,0q4.2-11.43,8.41-22.86l23.4-7.45A4.17,4.17,0,0,0,430.84,51.14Z"/><path class="cls-3" d="M478.29,118.28l-9.73-3.66q-1.41-5.1-2.81-10.21c-1.1-4-6.39-3.84-7.77-.18L454.32,114l-10.21,2.82c-4,1.1-3.84,6.38-.18,7.76l9.73,3.66,2.82,10.21c1.1,4,6.38,3.85,7.76.18l3.66-9.73,10.21-2.81C482.09,125,482,119.66,478.29,118.28Z"/><path class="cls-3" d="M56.84,252.2l-9.73-3.66q-1.41-5.11-2.81-10.21c-1.1-4-6.39-3.84-7.77-.18l-3.66,9.73L22.66,250.7c-4,1.09-3.84,6.38-.18,7.76l9.73,3.66L35,272.33c1.1,4,6.38,3.84,7.76.18l3.66-9.73L56.66,260C60.64,258.87,60.51,253.58,56.84,252.2Z"/><path class="cls-4" d="M322.74,263.16S277.74,226,293.49,181s50.62-55.13,74.25-56.25S415,143.91,415,143.91s-64.13-32.62-100.13,14.63S322.74,263.16,322.74,263.16Z"/></g></g></g></svg>