<svg enable-background="new 0 0 906.4 756" viewBox="0 0 906.4 756" xmlns="http://www.w3.org/2000/svg" xmlns:xlink="http://www.w3.org/1999/xlink"><linearGradient id="a" gradientUnits="userSpaceOnUse" x1="374.75" x2="374.75" y1="376.5" y2="373.2002"><stop offset="0" stop-color="#808080" stop-opacity=".25"/><stop offset=".54" stop-color="#808080" stop-opacity=".12"/><stop offset="1" stop-color="#808080" stop-opacity=".1"/></linearGradient><clipPath id="b"><path d="m286.4 172.8s48.3 14.5 116-7.3 207.7 31.5 207.7 31.5 111.1 0 275.4-70.1c0 0-74.9 72.5-21.7 116s4.8 106.3-58 130.4-67.6 72.5-62.8 118.4 0 2.4 0 2.4-188.4-33.8-236.7 82.2l-239.3-376.9s-14.5-29 19.4-26.6z"/></clipPath><path d="m87.7 125.5c78.5-56.1 103.7-53.4 173.6-24.3s150.1-71.9 241.4-68.7 51.3 56.1 102.6 104.2 65.7-112.2 139.4-35.3-30.4 150.6-17.6 216.4 44.9 11.2 70.6 144.2c25.6 133-153.9 266-237.2 221.2s-91.3-155.5-246.8-93-237.2 147.5-294.9 57.7 133-211.5 121.8-286.9c-11.2-75.3-147.5-167.9-52.9-235.5z" fill="#7942fc"/><path d="m373.7 374.9v-1.7l2.1 3.3z" fill="url(#a)"/><path d="m231.1 355.6h-.2l-8.1-10.5-13.1 13.1 1.5 2.2-1.7.4s26.5 51.2 30.9 31.7-9.3-36.9-9.3-36.9z" fill="#bc7762"/><path d="m286.4 172.8s48.3 14.5 116-7.3 207.7 31.5 207.7 31.5 111.1 0 275.4-70.1c0 0-74.9 72.5-21.7 116s4.8 106.3-58 130.4-62.8 72.2-62.8 118.4c0 2.6.3 3 .3 3s-188.7-34.4-237 81.6l-239.3-376.9s-14.5-29 19.4-26.6z" fill="#eabb39"/><g clip-path="url(#b)"><path d="m166.7 101.7 601.5 432.4 36.2-106.3z" opacity=".1"/><path d="m202.9 237 333.3 338.2 48.4-36.3z" opacity=".1"/></g><g opacity=".1"><path d="m300.3 206.9s48.3 14.5 116-7.3 207.7 31.5 207.7 31.5 89.9 0 227.5-51c10.9-28.8 35.8-52.9 35.8-52.9-164.3 70.1-275.4 70.1-275.4 70.1s-140.1-53.1-207.7-31.4-116 7.3-116 7.3c-33.8-2.4-19.3 26.6-19.3 26.6l9.9 15.7c2.1-5.4 7.9-9.6 21.5-8.6z"/><path d="m865.6 243.1c-2.5-2-4.8-4.2-6.9-6.6-.6 14.3 4.4 28.4 19 40.4 3.9 3.2 7.5 6.7 10.7 10.6.4-15.5-6.3-30.8-22.8-44.4z"/></g><path d="m374.1 690.7-4.5 22.3h-17.8l4.5-31.2z" fill="#b56e55"/><path d="m373.7 693.8-1.2 3.8-17.6-5 1.2-2.6z" opacity=".1"/><path d="m258.3 690.7 4.5 22.3h17.8l-4.5-31.2z" fill="#b56e55"/><path d="m411.8 84.8s-.5-22.3-16.2-34.6-3.9 44.1-3.9 44.1z" fill="#bc7762"/><g fill="#333"><path d="m280.6 708.5h-22.3l-4.5 13.4s-22.8-.5-22.3 4.5c.5 4.9 12.9 13.4 44.5 4.5l8.9-8.9c.1-.1 4.6-4.6-4.3-13.5z"/><path d="m351.8 708.5h22.3l4.5 13.4s22.8-.5 22.3 4.5c-.5 4.9-12.9 13.4-44.5 4.5l-8.9-8.9c-.2-.1-4.6-4.6 4.3-13.5z"/><path d="m378.5 405.8h-124.6c-40.6 106.9-35.6 155.8-35.6 155.8l35.6 133.6 26.7-4.5-26.7-133.5c22.3-18.3 62.3-89 62.3-89s40.1 70.7 62.3 89l-26.7 133.6 26.7 4.5 35.6-133.6s5-49.1-35.6-155.9z"/></g><path d="m253.9 407.5s70.7 26.7 124.7 0z" opacity=".1"/><path d="m249.9 246-35.6 35.6 13.4 71.2-17.8 13.4-31.2-93.5s-9.4-17.3 4.5-26.7l53.4-53.4s22.9-15.4 38.7-7.5-25.7 60.4-25.7 60.4" fill="#8feaba"/><path d="m249.4 245.5 4.5 160.3s70.7 26.7 124.7 0l-4.5-150.9-1.1-5 .8-2.5 53.5-44.4c14.7-8.1 6.9-26.2 6.9-26.2l-22.4-96-19 11.6 6.7 72.2-38.1 31.6h-1v.2l-97.7-4.4" fill="#8feaba"/><path d="m313.7 170.1h5.4c8.4 0 15.1 6.8 15.1 15.1v9.8c0 8.4-6.8 15.1-15.1 15.1h-5.4c-8.4 0-15.1-6.8-15.1-15.1v-9.8c0-8.4 6.8-15.1 15.1-15.1z" fill="#b56e55"/><path d="m299.8 187.2c11.5 4 24.1 2.6 34.4-3.8-2.6-7-9.2-11.7-16.7-11.7-9 0-16.6 6.6-17.7 15.5z" opacity=".1"/><circle cx="312" cy="147.8" fill="#bc7762" r="40.1"/><path d="m284.2 125.7c-2.5.3-5 .2-7.5-.4-2.4-.9-4.6-2.3-6.3-4.1-5.2-5-9.1-11.7-9.6-19s2.9-14.9 9.1-18.5c8.8-5 20-1.1 28.5 4.5 7.3 4.8 16 10.9 23.8 7.1 2.6-1.2 4.6-3.4 6.9-5.1 9-6.4 22.5-3.2 29.9 5s9.5 20.1 8.2 31.1-5.5 21.4-9.3 31.7c-.6 2-1.6 3.9-3 5.6-4.7 4.8-13.5 1.1-16.6-4.9-5.4-10.4 0-28.4-12.7-34.5-10.2-4.8-30.6.8-41.4 1.5z" opacity=".1"/><path d="m284.8 123.2c-2.7.3-5.4.2-8.1-.4-2.6-1-5-2.5-6.8-4.5-5.6-5.4-9.9-12.7-10.4-20.6s3.1-16.2 9.9-20.1c9.6-5.4 21.7-1.2 31 4.9 7.9 5.2 17.4 11.8 25.8 7.7 2.8-1.3 5-3.7 7.5-5.5 9.8-7 24.4-3.5 32.5 5.4 8 8.9 22.6 11.6 24.6 38.2.9 12 2 29.8-17.8 46.1-.7 2.2-36.4 29.6-47.6 19.9-5.3-5.3 25-35 21.6-41.5 0-14.1-3.5-24.7-17.3-31.3-10.9-5.1-33.2 1-44.9 1.7z" fill="#b8d0ff"/><ellipse cx="340.2" cy="145.8" fill="#bc7762" rx="4.5" ry="8.9"/><path d="m249.5 245.5 11.3 5.3-11.3 13.8z" opacity=".1"/><path d="m373.7 247.4-7.5 8.4 5 7.5 2.9-8.3z" opacity=".1"/><path d="m317 206.6v7.3s-52.9-9.7-54.2-24.2l34.9 2.4z" fill="#eabb39"/><path d="m317 206.6v7.3s52.9-9.7 54.2-24.2l-34.9 2.4z" fill="#eabb39"/><path d="m640.1 285.3 174 41.1-62.9 26.5z" opacity=".1"/><path d="m262.9 190.1s0-15.2 10.1-15.2 20.2 30.4 20.2 30.4z" fill="#eabb39"/><path d="m511.8 44.4c-1.9-.8-2.9-2.9-2.3-4.9 0-.1.1-.3.1-.4.1-1.1-.8-2.1-1.9-2.2-.7 0-1.3.3-1.8.8-.1.1-.2.3-.2.4-.8 1.9-2.9 2.8-4.9 2.3-.1 0-.3-.1-.4-.1-1.1-.1-2.1.8-2.2 1.9 0 .7.3 1.3.8 1.8.1.1.3.2.4.2 1.9.8 2.8 2.9 2.2 4.9 0 .1-.1.3-.1.4-.1 1.1.8 2.1 1.9 2.2.7 0 1.3-.3 1.8-.8.1-.1.2-.3.2-.4.8-1.9 2.9-2.9 4.9-2.3.1 0 .3.1.4.1 1.1.1 2.1-.8 2.2-1.9 0-.7-.3-1.3-.8-1.7 0-.1-.1-.2-.3-.3z" fill="#4d8af0" opacity=".5"/><path d="m288 139.7 40.8-8s-5 21.9-15.9 26.8c-11 5-24.9-18.8-24.9-18.8z" fill="none" stroke="#333" stroke-miterlimit="10" stroke-width="4.4731"/><path d="m286.5 138.2-40.8-8s5 21.9 15.9 26.8c11 5 24.9-18.8 24.9-18.8z" fill="none" stroke="#333" stroke-miterlimit="10" stroke-width="4.4731"/><ellipse cx="702.1" cy="715.6" fill="#7942fc" rx="7.9" ry="7.9" transform="matrix(.7071 -.7071 .7071 .7071 -300.353 706.0308)"/><circle cx="814.6" cy="556.6" fill="#8feaba" r="6.5"/><circle cx="853.6" cy="472.6" fill="#8feaba" r="16.7"/><circle cx="892.6" cy="406.6" fill="#eabb39" r="8.7"/><circle cx="825.1" cy="404.3" fill="#8feaba" r="8.3"/><path d="m878.2 563.8h-10.8v-10.8h-10.8v10.8h-10.8v10.8h10.8v10.8h10.8v-10.8h10.8z" fill="#7942fc"/><path d="m822.2 706.6h-6.8v-6.8h-6.8v6.8h-6.8v6.8h6.8v6.8h6.8v-6.8h6.8z" fill="#eabb39"/><ellipse cx="790.6" cy="639.1" fill="#8feaba" rx="13.9" ry="13.9" transform="matrix(.7071 -.7071 .7071 .7071 -220.3423 746.2014)"/><circle cx="876.1" cy="199.6" fill="#9553fd" r="13"/><circle cx="566.1" cy="272.1" fill="#eabb39" r="8.7"/><circle cx="849.1" cy="85.6" fill="#eabb39" r="8.7"/><path d="m1475.4-231.7c67.1 27.1 115.6-79.3 209.2-11.7 70.4 50.8-21.5 113.4-56.7 177.9s-54.7 101.6 70.4 131c125.1 29.3 201.3 248.2 91.9 303-109.5 54.7-265.8-15.6-301 11.7-35.2 27.4-109.5 99.7-162.2 25.4-46.2-65-267.8 166.2-334.3 62.6s97.7-228 117.3-299.1-174-97.7-27.4-195.5c95.1-63.4 125.1-33.2 111.4-84.1-26.8-99.6-134.9-29.3-148.6-131s236.5-68.4 430 9.8z" fill="#8feaba"/><circle cx="807.1" cy="129.1" fill="#8feaba" r="8.3"/></svg>