<svg enable-background="new 0 0 1034.9 831.6" viewBox="0 0 1034.9 831.6" xmlns="http://www.w3.org/2000/svg"><path d="m566.3 267.8c-49.6-2-96.8-20.7-141.9-41.2s-89.8-43.2-138.2-54c-31.1-7-66.7-8-91.8 11.5-24.1 18.8-31.9 51.2-36.1 81.3-3.2 22.6-5 46.5 3.6 67.6 6 14.7 16.7 27.1 24 41.2 25.6 49 7.5 109.5-20.3 157.3-13 22.5-28.1 43.9-38.2 67.8s-14.7 51.3-5.9 75.7c8.7 24.1 29.5 42.3 52 55.1 45.7 25.9 99.6 33.3 152.1 37.6 116.3 9.3 166.4-56.4 334.6-47.1 43.2-1.5 101.7 45.4 144.2 37.5 23.6-4.3 47.9-11.2 65-27.8 21.7-21.1 27.1-56.8 12.6-83.2-24.4-44.3-29.7-57.2-46.8-104.8-9.4-26.2-12.3-34.6 1.3-58.9 29.3-52.1 25.7-64.5 28.3-124 1.8-40.9-25.4-81.4-61.9-100.8-38.3-20.3-83.4-15.5-119.8-3.1-51 12.3-73 14.1-116.8 12.3z" fill="#f0be31"/><ellipse cx="269.2" cy="688.8" fill="#6c63ff" opacity=".1" rx="41.8" ry="7.4"/><circle cx="629.9" cy="325.4" fill="#e6e8ec" r=".3"/><path d="m809.2 218.3c-5.9-4-12.6-6.1-19.7-6.7-11.7 0-21.5 9.5-26.8 19.8-5.2 10.4-7.2 22.3-11.3 33.2-3.9 11-11.4 21.7-22.5 25.5-11.2 3.8-22.8-.6-33.9-3.9-14.5-4.4-29.5-6.9-44.5-8.2-12.6-.9-28.1.7-33.7 12.1-4.7 9.3-.6 20.2 1.9 30.4 4.8 19.1 1 39.2-10.1 55.5-11.6 15.9-30.7 25.5-41.1 42.2-2.8 4.2-4.3 9.1-4.2 14.2.6 3.6 1.6 7.1 3.5 10.2 4.5 8.2 10 15.8 13.7 24.2 8.1 17.7 7.5 38 5.4 57.3-1.9 18.9-5.4 37.8-10.1 56.4 14.6-2.2 29.5 4.5 44.2 4.1 31.7-1.1 57.1-33.9 88.5-30.7 15 1.5 29.5 11.1 43.8 6.8 6.9-2.6 12.7-7.2 16.7-13.6 7.6-10.9 11.1-24.1 9.8-37.4-.7-9.1-3.8-18.4-1.3-27.4 2.5-7.5 7.6-14 14.2-18.2 18-13.5 41.6-19.5 55.8-36.9 13.3-16.9 14.9-40.4 4-59-3.2-4.5-6.2-9.2-9.1-14-3.4-8.6-4.7-18-3.2-27 2.3-22.1 10-44.1 6.6-66.2-2.2-19.9-19.8-33.1-36.6-42.7z" fill="#4db6ac"/><path d="m808.7 218.7s-121.8 333.8-209.5 360.9" fill="none" opacity=".6" stroke="#535461" stroke-miterlimit="10" stroke-width="3.4977"/><path d="m619.5 284.3s64.8 20.7 119.3 100.4" fill="none" opacity=".6" stroke="#535461" stroke-miterlimit="10" stroke-width="3.4977"/><path d="m720.4 422.6c41.5-25.1 91.5-32 138.2-18.8" fill="none" opacity=".6" stroke="#535461" stroke-miterlimit="10" stroke-width="3.4977"/><path d="m566.2 418.3s91.9 24.1 120.4 65.9" fill="none" opacity=".6" stroke="#535461" stroke-miterlimit="10" stroke-width="3.4977"/><path d="m666.7 515s53.8-.1 96.6 39" fill="none" opacity=".6" stroke="#535461" stroke-miterlimit="10" stroke-width="3.4977"/><path d="m461.3 217.3-232.2 150.7 151.6 273.4c1.4 2.6 3.9 4.5 6.7 5.2l137.3 33.4c4.8 1.2 9.9-1.2 12-5.7l68.1-141.5 74.7-99.8-177.1-209.6c-10.2-12.1-27.8-14.7-41.1-6.1z" fill="#dcdfed"/><path d="m681.9 434.2-.7.9-43.7 58.5-.8 1.1-29.5 39.3-58.2 121-1.6 3.4-8.2 17.1c-2.2 4.5-7.2 6.9-12 5.7l-137.3-33.5c-2.9-.7-5.3-2.6-6.7-5.2l-13.2-23.8-2.4-4.3-95.3-172-.8-1.5-39.8-71.8 4.8-3.1 36.5-23.7.8-.6 76.8-49.9 4.8-3.1 108.4-70.3c13.3-8.6 30.8-6 41 6.1l80.8 95.6 3.6 4.3 58.7 69.4.3.4 29.5 34.9 3.7 4.4z" opacity=".1"/><path d="m645.8 393.1-7.2 49.7-2.2 15-1.2 32-.1 2.5-6.4 167c-.2 5.8-5.2 10.4-11 10.2-.6 0-1.3-.1-1.9-.2l-69.2-15.5-.7-.2-177.5-39.6-3.3-.7-97.6-21.8 2.2-150.2.1-5 .7-45.5.7-50.2 76.8-49.9 4.8-3.1c71.4 7.3 166.2 21.4 230.4 31.4l3.6 4.3 58.6 69.4z" opacity=".1"/><path d="m653.9 334.1-8.4 58.6-7.7 53.7-2.2 15-1.2 32-6.5 169.5c-.2 5.8-5.2 10.4-11 10.2-.6 0-1.3-.1-1.9-.2l-70-15.6-177.5-39.6-100.9-22.7 2.3-155.2.7-45.5.8-53.2.8-54.7c16.7-.8 44.1 1 76.9 4.3 73.4 7.4 173.4 22.3 238.7 32.5 40.1 6.4 67.1 10.9 67.1 10.9z" fill="#6c63ff"/><path d="m675.3 427.9-37.5 18.4-191.6 94-176.6-145.9-35.7-29.5-4.8 3.1 39.8 71.8-2.3 155.2 100.9 22.5 13.2 23.8c1.4 2.6 3.9 4.5 6.7 5.2l137.3 33.5c4.8 1.2 9.9-1.2 12-5.7l8.2-17.1 70 15.6c5.7 1.3 11.4-2.3 12.6-8 .1-.6.2-1.2.2-1.9l6.5-169.5 44.5-59.5.1-1.5z" opacity=".1"/><path d="m229.1 368-15.8 271.2c-.3 5.2 3.2 9.8 8.3 11l420.5 93.4c5.7 1.3 11.4-2.4 12.6-8.1.1-.5.2-.9.2-1.4l24.6-301-233.3 114.3z" fill="#dcdfed"/><path d="m216.2 645.3 218.5-134.8c6.7-4.1 15.3-2.7 20.4 3.2l195.5 228.1c.7.8 1.1.2 0 0l-434.4-96.5c-1.3-.2-1.1.7 0 0z" opacity=".1"/><path d="m217.7 645.1 216.2-130.6c7.1-4.3 16.2-2.8 21.6 3.4l193.8 222.8c.8 1 .7 2.5-.2 3.3-.6.5-1.3.7-2 .5l-428.6-95.2c-1.3-.3-2.1-1.5-1.8-2.8.1-.5.5-1 1-1.4z" fill="#e3e5f1"/><path d="m233.5 688.6s-11.5-64.9-54-97.1c-17.8-13.5-30.9-31.9-36.6-52.8-2.7-9.9-4.4-20-5.1-30.3" fill="none" stroke="#535461" stroke-miterlimit="10" stroke-width="1.7762"/><g fill="#6c63ff"><path d="m111.1 488.1c3.6 7 27.3 21 27.3 21s3-26.3-.6-33.3-12.4-9.9-19.8-6.5-10.5 11.8-6.9 18.8z"/><path d="m108.8 536.7c7 4 35 3.7 35 3.7s-12.6-23.6-19.6-27.6-16.1-1.9-20.4 4.7c-4.2 6.6-2 15.2 5 19.2z"/><path d="m143.7 602.2c8.2.1 32.2-13.5 32.2-13.5s-23.5-14.4-31.7-14.5-14.9 6.1-15.1 13.8 6.4 14.1 14.6 14.2z"/><path d="m181.8 646.1c8 1.4 34.1-8.2 34.1-8.2s-20.6-17.9-28.7-19.3c-8-1.4-15.8 3.6-17.3 11.2-1.4 7.6 3.9 14.9 11.9 16.3z"/><path d="m172.6 528.9c-2.8 7.3-24.9 23.6-24.9 23.6s-5.8-25.9-3-33.1c2.8-7.3 11.3-11 19-8.4s11.7 10.6 8.9 17.9z"/><path d="m216.5 580.8c-5 6.2-31.2 15.5-31.2 15.5s2.7-26.3 7.6-32.5c5.2-6.2 14.2-7.3 20.8-2.7 6.1 4.2 7.7 12.6 3.5 18.8-.2.3-.4.6-.7.9z"/><path d="m251.9 636.8c-3.8 6.9-28 20.2-28 20.2s-2.1-26.4 1.7-33.2c3.8-6.9 12.8-9.5 20-5.9 7.3 3.6 10.1 12 6.3 18.9z"/></g><path d="m111.1 488.1c3.6 7 27.3 21 27.3 21s3-26.3-.6-33.3-12.4-9.9-19.8-6.5-10.5 11.8-6.9 18.8z" opacity=".25"/><path d="m108.8 536.7c7 4 35 3.7 35 3.7s-12.6-23.6-19.6-27.6-16.1-1.9-20.4 4.7c-4.2 6.6-2 15.2 5 19.2z" opacity=".25"/><path d="m143.7 602.2c8.2.1 32.2-13.5 32.2-13.5s-23.5-14.4-31.7-14.5-14.9 6.1-15.1 13.8 6.4 14.1 14.6 14.2z" opacity=".25"/><path d="m181.8 646.1c8 1.4 34.1-8.2 34.1-8.2s-20.6-17.9-28.7-19.3c-8-1.4-15.8 3.6-17.3 11.2-1.4 7.6 3.9 14.9 11.9 16.3z" opacity=".25"/><path d="m172.6 528.9c-2.8 7.3-24.9 23.6-24.9 23.6s-5.8-25.9-3-33.1c2.8-7.3 11.3-11 19-8.4s11.7 10.6 8.9 17.9z" opacity=".25"/><path d="m216.5 580.8c-5 6.2-31.2 15.5-31.2 15.5s2.7-26.3 7.6-32.5c5.2-6.2 14.2-7.3 20.8-2.7 6.1 4.2 7.7 12.6 3.5 18.8-.2.3-.4.6-.7.9z" opacity=".25"/><path d="m251.9 636.8c-3.8 6.9-28 20.2-28 20.2s-2.1-26.4 1.7-33.2c3.8-6.9 12.8-9.5 20-5.9 7.3 3.6 10.1 12 6.3 18.9z" opacity=".25"/><path d="m232 686.9s17.4-63.7-7.7-109.4c-10.5-19.2-14.6-40.9-10.8-62.2 1.8-10.1 4.6-20.1 8.3-29.6" fill="none" stroke="#535461" stroke-miterlimit="10" stroke-width="1.7762"/><path d="m206.2 456.8c.3 7.7 15.9 29.7 15.9 29.7s14-22.9 13.7-30.6-7.1-13.8-15.3-13.5-14.6 6.6-14.3 14.4z" fill="#6c63ff"/><path d="m183.3 500.4c4.7 6.3 30.4 16.7 30.4 16.7s-1.4-26.4-6.1-32.8c-4.9-6.4-13.9-7.9-20.7-3.5-6.3 4-8.2 12.3-4.3 18.6.3.4.5.7.7 1z" fill="#6c63ff"/><path d="m187 573.5c7.4 3.2 35.2-.1 35.2-.1s-15.4-22.1-22.8-25.4c-7.4-3.2-16.3-.2-19.7 6.8s-.1 15.5 7.3 18.7z" fill="#6c63ff"/><path d="m203 628.3c6.8 4.4 34.7 5.6 34.7 5.6s-11.2-24.3-17.9-28.6c-6.7-4.4-15.7-2.8-20.6 3.6-4.4 6-3.1 14.5 2.9 18.9.3.1.6.3.9.5z" fill="#6c63ff"/><path d="m244.9 517.6c-5.7 5.6-32.9 12.1-32.9 12.1s5.8-25.9 11.4-31.5c5.8-5.6 15-5.8 21-.4 5.6 4.9 6.1 13.4 1.2 19-.1.3-.4.5-.7.8z" fill="#6c63ff"/><path d="m262.8 581.9c-7.2 3.7-35.2 2.2-35.2 2.2s13.7-23.1 20.9-26.8 16.2-1.2 20.1 5.6c4 6.7 1.4 15.2-5.8 19z" fill="#6c63ff"/><path d="m271.1 646.6c-6.4 4.8-34.3 7.8-34.3 7.8s9.4-24.9 15.8-29.7c6.5-4.8 15.6-3.8 20.8 2.3 4.8 5.7 4.1 14.2-1.5 19-.2.1-.5.4-.8.6z" fill="#6c63ff"/><ellipse cx="944.6" cy="60.6" fill="#79f2bc" rx="7.7" ry="7.7" transform="matrix(.7071 -.7071 .7071 .7071 233.8014 685.6629)"/><circle cx="875.6" cy="185.1" fill="#79f2bc" r="5.5"/><circle cx="913.1" cy="285.6" fill="#79f2bc" r="6.7"/><circle cx="581.6" cy="390.6" fill="#79f2bc" r="6.7"/><circle cx="496.1" cy="479" fill="#79f2bc" r="4.6"/><circle cx="660.7" cy="408.4" fill="#9553fd" r="6.7"/><circle cx="603.4" cy="505.3" fill="none" r="9.5" stroke="#9553fd" stroke-miterlimit="10" stroke-width="3.6529"/><circle cx="923.6" cy="241.9" fill="#9553fd" r="7.3"/><circle cx="953.6" cy="161.1" fill="#9553fd" r="4.8"/><path d="m839.3 130.2h-6.3v-6.3h-6.2v6.3h-6.2v6.2h6.2v6.2h6.2v-6.2h6.3z" fill="#79f2bc"/><path d="m575.8 452.3h-6.2v-6.2h-6.2v6.2h-6.3v6.2h6.3v6.3h6.2v-6.3h6.2z" fill="#79f2bc"/><path d="m898.7 328.9h-6.2v-6.2h-6.2v6.2h-6.2v6.2h6.2v6.2h6.2v-6.2h6.2z" fill="#9553fd"/><circle cx="832.8" cy="352.3" fill="none" r="15.7" stroke="#79f2bc" stroke-miterlimit="10" stroke-width="6"/><circle cx="889.1" cy="113.1" fill="none" r="9.5" stroke="#9553fd" stroke-miterlimit="10" stroke-width="3.6529"/></svg>