<svg enable-background="new 0 0 971.4 814" viewBox="0 0 971.4 814" xmlns="http://www.w3.org/2000/svg" xmlns:xlink="http://www.w3.org/1999/xlink"><linearGradient id="a"><stop offset="0" stop-color="#808080" stop-opacity=".25"/><stop offset=".54" stop-color="#808080" stop-opacity=".12"/><stop offset="1" stop-color="#808080" stop-opacity=".1"/></linearGradient><linearGradient id="b" gradientUnits="userSpaceOnUse" x1="851.5504" x2="851.5504" xlink:href="#a" y1="648.2998" y2="558.6001"/><linearGradient id="c" gradientUnits="userSpaceOnUse" x1="480.7" x2="480.7" xlink:href="#a" y1="644.5" y2="411.8999"/><path d="m569.9 81.8c67.1 27.1 115.6-79.3 209.2-11.7 70.4 50.8-21.5 113.4-56.7 177.9s-54.7 101.6 70.4 131c125.1 29.3 201.3 248.2 91.9 303-109.5 54.7-265.8-15.6-301 11.7-35.2 27.4-109.5 99.7-162.2 25.4-46.2-65-267.8 166.2-334.3 62.6s97.7-228 117.3-299.1-174-97.7-27.4-195.5c95.1-63.4 125.1-33.2 111.4-84.1-26.8-99.6-134.9-29.3-148.6-131s236.5-68.4 430 9.8z" fill="#8feaba"/><path d="m158.7 260.2c-5.9-.6-12.2-.8-17.7 1.6-9.1 4.1-13.4 14.8-13.8 24.8s2.2 19.9 2.8 29.9-1.2 20.9-8.5 27.9c-7.3 6.9-17.9 7.5-27.6 8.9-12.8 1.8-25.4 4.9-37.6 9.4-10.2 3.7-21.5 10.4-22 21.3-.4 8.9 6.7 15.9 12.2 23 10 13.2 15 30.5 11.6 46.8-3.5 16.2-15.1 30.6-17.1 47.3-.8 4.3-.2 8.5 1.6 12.6 1.6 2.6 3.9 4.9 6.3 6.7 6.3 4.9 13.4 8.7 19.3 14 12.4 11 19.1 27 24.4 42.7 5.1 15.5 9.1 31.3 12 47.4 10.8-6.9 24.6-6.7 36-12.4 24.4-12 32.5-46.6 58.1-55.1 12.2-4.1 27-1.6 36.6-10.2 4.5-4.5 7.3-10.2 8.3-16.5 2-11.2.2-22.6-5.3-32.5-3.9-6.9-9.6-13-10.8-20.9-1-6.7 1.4-13.4 4.7-19.3 9.1-16.9 25.6-29.9 30.5-48.4 4.5-17.9-2.6-36.8-17.7-47.4-4.1-2.4-8.1-4.9-12-7.7-5.9-5.1-9.4-12.4-12-19.9-5.9-17.9-7.7-37.8-18.3-53.9-9-14.2-27.5-18.5-44-20.1z" fill="#4db6ac"/><path d="m158.5 260.8s22.6 302.9-36.2 354.7" fill="none" opacity=".6" stroke="#535461" stroke-miterlimit="10" stroke-width="1.987"/><path d="m34.3 378.3s57.7-6.7 128.3 36.2" fill="none" opacity=".6" stroke="#535461" stroke-miterlimit="10" stroke-width="1.987"/><path d="m161.6 450.6s32.1-53.1 101-63.2" fill="none" opacity=".6" stroke="#535461" stroke-miterlimit="10" stroke-width="1.987"/><path d="m39.8 501.5s80.1-13.6 116.9 8.9" fill="none" opacity=".6" stroke="#535461" stroke-miterlimit="10" stroke-width="1.987"/><path d="m152.2 541.5s41.9-19.1 89-3.7" fill="none" opacity=".6" stroke="#535461" stroke-miterlimit="10" stroke-width="1.987"/><path d="m881.2 574.6v-16h-80.1v74.1c0 8.6 7 15.6 15.6 15.6h48.9c8.6 0 15.6-7 15.6-15.6v-16.4c11.5 0 20.8-9.3 20.8-20.8.1-11.6-9.3-20.9-20.8-20.9zm0 33.6v-25.6c7.1-.2 13 5.4 13.2 12.5s-5.4 13-12.5 13.2c-.2 0-.5 0-.7-.1z" fill="url(#b)" opacity=".7"/><path d="m878.6 577.1c-10.5 0-19 8.5-19 19s8.5 19 19 19 19-8.5 19-19c.1-10.5-8.5-19-19-19zm0 30.7c-6.5 0-11.7-5.3-11.7-11.7s5.3-11.7 11.7-11.7c6.5 0 11.7 5.3 11.7 11.7.1 6.5-5.2 11.7-11.7 11.7z" fill="#6c63ff"/><path d="m878.6 577.1c-10.5 0-19 8.5-19 19s8.5 19 19 19 19-8.5 19-19c.1-10.5-8.5-19-19-19zm0 30.7c-6.5 0-11.7-5.3-11.7-11.7s5.3-11.7 11.7-11.7c6.5 0 11.7 5.3 11.7 11.7.1 6.5-5.2 11.7-11.7 11.7z" opacity=".1"/><path d="m805.5 562.5h73.1v72.4c0 5.3-4.3 9.5-9.5 9.5h-54.1c-5.3 0-9.5-4.3-9.5-9.5z" fill="#6c63ff"/><path d="m6 644.4h949.4v32.2h-949.4z" fill="#e0e0e0"/><path d="m484.2 552.6c47.8 0 125.9-14.2 163-38.7-4-22-13.3-57.5-22-89.4-11.2-40.5-81.6-68.6-123.7-68.6h-40.5c-42.2 0-112.7 28.3-123.8 69-8.4 31-17.4 65.1-21.8 85.1 38.3 26.9 118.6 42.6 168.8 42.6z" fill="#546642"/><circle cx="481.8" cy="203.5" fill="#231612" r="113.6"/><path d="m445.1 298.1h72.8v58.2c0 20.1-16.3 36.4-36.4 36.4-20.1 0-36.4-16.3-36.4-36.4z" opacity=".1"/><path d="m547.5 115.1c9.1 3.3 17.9 12.5 24.4 19.5 19.6 21.2 33.5 67.4 56.1 85.4-6.5 3.9-16.3.5-18.8-6.8-.4 16.5.4 35.7 13.7 45.5-11.1 4.4-23.8 1.9-32.5-6.2-1.1 14.6-11.6 29.9-26.2 30.5-9.8.3-18.8-6.1-24.1-14.3s-7.6-18-9.4-27.6c-5.3-28.1-39.2-146 16.8-126z" fill="#231612"/><path d="m455.6 295.4h51.9c5.8 0 10.4 4.7 10.4 10.4v47.8c0 20.1-16.3 36.4-36.4 36.4-20.1 0-36.4-16.3-36.4-36.4v-47.8c0-5.7 4.7-10.4 10.5-10.4z" fill="#d88e6a"/><path d="m436.1 253.8c-1.8 9.6-4.1 19.4-9.4 27.6s-14.4 14.6-24.1 14.3c-14.7-.5-25.1-15.8-26.2-30.5-8.7 8.2-21.4 10.6-32.5 6.2 13.3-9.8 14.2-29 13.7-45.5-2.5 7.2-12.3 10.7-18.8 6.8 22.6-18 36.5-64.2 56.1-85.4 6.6-7.1 15.4-16.3 24.4-19.5 56-20 22.1 97.9 16.8 126z" fill="#231612"/><path d="m445.3 325.6c23.5 8.8 49.3 8.8 72.8.2v-8.9h-72.8z" opacity=".1"/><circle cx="481.8" cy="226.2" fill="#d88e6a" r="104.3"/><path d="m459.4 125.3s23.5 85.3 122.6 49.1l-16.9-43.9-36.6-21.3z" fill="#231612"/><path d="m586.1 227.1h-2.8l-53.8 47.9c-51.8-24.3-89.9 0-89.9 0l-56.4-46-5.7.7c1.6 57.6 49.5 103 107.1 101.4 56.5-1.5 101.4-47.6 101.5-104zm-104.5 66.3c-20.3 0-36.7-4.1-36.7-9.2s16.5-9.2 36.7-9.2c20.3 0 36.7 4.1 36.7 9.2.1 5-16.4 9.2-36.7 9.2z" fill="#231612" opacity=".63"/><ellipse cx="377.4" cy="226.1" fill="#d88e6a" rx="9.7" ry="18.2"/><ellipse cx="586.1" cy="226.1" fill="#d88e6a" rx="9.7" ry="18.2"/><path d="m293 411.9h375.4c7.8 0 14.2 6.3 14.2 14.2v204.2c0 7.8-6.3 14.2-14.2 14.2h-375.4c-7.8 0-14.2-6.3-14.2-14.2v-204.2c0-7.9 6.4-14.2 14.2-14.2z" fill="url(#c)" opacity=".7"/><path d="m312.4 416.2h336.7c14.5 0 26.2 11.7 26.2 26.2v175.7c0 14.5-11.7 26.2-26.2 26.2h-336.7c-14.5 0-26.2-11.7-26.2-26.2v-175.7c0-14.5 11.7-26.2 26.2-26.2z" fill="#878a96"/><circle cx="480.7" cy="530.3" fill="#fff" r="13.2"/><path d="m46.2 676.6h869v13.2h-869z" fill="#e0e0e0"/><path d="m46.2 676.6h869v4.4h-869z" opacity=".1"/><path d="m865.5 562.5v67.7c0 7.9-6.4 14.3-14.3 14.3h7.3c7.9 0 14.3-6.4 14.3-14.3v-67.7z" opacity=".1"/><path d="m819.9 508c-1.2.2-2.6.5-3.2 1.6-1 1.7.8 3.7 2.4 4.9 2.9 2.2 6 4.4 8 7.5s2.6 7.4.4 10.3c-2.8 3.9-9.6 4.7-10.3 9.4-.4 3 2.2 5.6 4.9 7.2 6.6 3.8 15.1 4.8 19.9 10.7 2-4.1 6.4-6.4 10.8-7.4s9-.9 13.4-1.6c1.4-.2 3.1-.7 3.7-2 1.3-2.5-2.3-5.6-1.1-8.1 1-2 3.7-1.8 5.7-2.6 3.3-1.3 4.6-5.5 3.7-8.8s-3.5-6-6.3-8.2c-7.4-5.9-16.3-9.2-25.3-11.7-4.2-1.1-9.1-2.9-13.5-3.1-4.2-.2-9 1.1-13.2 1.9z" fill="#fff" opacity=".59"/><path d="m376.5 194.5s84.6 25.9 107.1-77.2l-46.1-9.3-37.6 19.5z" fill="#231612"/><g fill="#231f20"><path d="m748.5 344.4c-.2 12.2-.3 24.5 1.2 36.7.7 5.6 1.7 11.1 3.1 16.6 1.2 4.7 2.4 10.8 5.5 14.7 5.6 7.1 14.5.6 18.8-4.6 6.2-7.3 10.2-18.1 10.7-27.6.4-6.5-1.6-18.5-10.5-18.1-8.3.4-10.6 12.1-10.6 18.5-.1 17.3 18.1 32.3 34 21 3.7-2.7-.3-8.5-4.1-5.8-12.5 8.8-24-5.6-22.6-17.7.2-2 1.4-9.7 4.9-7.9 2.3 1.2 1.9 8.7 1.7 10.8-.6 6-2.8 12.1-5.8 17.4-2.8 5.1-9.8 13.9-13.1 4.4-2.3-6.5-3.7-13.3-4.7-20.1-1.7-12.9-1.7-26-1.5-39 .2-4.5-6.9-3.8-7 .7z"/><path d="m815.3 362.2c-.4-3.3-2.9-5.6-6.4-5.1-4.5.7-7.7 6.4-9.4 10.1-4.4 9.4-4.5 22.9 2.6 31.1 7.6 8.8 16 2.1 18.9-6.7 4-12.2 3.3-25.4-1.3-37.3-1.5-3.9-7-2.4-6.9 1.6.4 12.2 5.9 24.5 15.7 32 12.3 9.5 22.7.7 33.6-6.3 3.9-2.5-.3-8.3-4.1-5.8-3.6 2.3-7.1 4.8-10.7 7-6.7 4-12.3 2.2-17.5-3.3-6.4-6.6-9.6-15.2-9.9-24.2-2.3.5-4.6 1.1-6.9 1.6 2.2 5.7 3.5 11.5 3.5 17.6.1 4.5-.1 13.8-3.2 17.5-7.5 9-10.1-9.4-9.7-13.3.3-2.9 1-5.7 2.2-8.3.7-1.5 1.5-2.9 2.5-4.1 1.7-1.1 1.6-2.2-.2-3.2.7 4.4 7.8 3.7 7.2-.9z"/><path d="m737.6 383.3c10.9-7.8 21.8-15.6 32.8-23.4 3.7-2.7-.4-8.5-4.1-5.8-10.9 7.8-21.8 15.6-32.8 23.4-3.8 2.6.3 8.5 4.1 5.8z"/><path d="m826.2 463.4c2.6 4.9 5.2 9.8 7.8 14.7 1.8 3.3 3.3 6.8 6 9.5.7.7 2.1.3 2.4-.6 2.6-7.5 5.3-14.9 10.6-21 .8-1 0-2.9-1.4-2.6-7.3 1.7-14.4 1.8-21.7.4-1.6-.3-2.3 1.8-1.2 2.8 2.9 2.7 5.3 5.7 7.4 9.1.9 1.5 3.6.1 2.7-1.5-1.2-2.2-1.6-4-1.4-6.5-1 .1-2 .2-3 .3.9 2.5 1.6 4.9 2.2 7.5.3 1.4 2.4 1.2 2.9.1 1-2.2 2-4 3.4-6-.9-.4-1.8-.8-2.8-1.2-.6 2.3-1.2 4.5-1.9 6.8-.5 1.7 2.3 2.4 3 .9 1-2.3 2.3-4.2 4-6-.9-.5-1.8-1.1-2.7-1.6-1.2 3.4-2.8 6.5-4.8 9.5-1.1 1.7 1.3 3.7 2.4 2 2.3-3.3 4.8-6.3 7.7-9.1-.9-.5-1.8-1.1-2.7-1.6-1.3 2.6-2.7 5.1-4.4 7.5.9.5 1.8 1.1 2.7 1.6 1.2-2.5 2.8-4.6 4.6-6.6-.8-.7-1.6-1.3-2.4-2-2.8 3.6-5.3 7.4-7.7 11.3 1 0 1.9 0 2.9.1-.8-1.5-1.6-3.1-2.4-4.6-.9.5-1.8 1-2.7 1.5.5.8.9 1.6 1.4 2.4.7 1.2 2.7.6 2.8-.7.7-5.5 5-8.6 9.7-10.8 1.6-.7 1.1-3.2-.7-3-6.2.6-12-.7-17.3-4-.3.9-.5 1.9-.8 2.8 7.6-.5 15.1-.9 22.7-1.4-.1-1-.2-2.1-.4-3.1-5 .6-9.9 1.6-14.8 3-1.7.5-1 3.4.7 3 3.6-.7 7.2-1.4 10.8-2.1 1.6-.3 2-3.1.1-3.1-.9 0-1.8-.1-2.7-.1.1 1 .2 2 .3 3 1-.3 1.9-.7 2.9-1-.5-.9-.9-1.7-1.4-2.6-.6.4-1.2.8-1.7 1.2-.8.5-.9 2-.1 2.5l1.5.9c-.1-.6-.3-1.2-.4-1.9-.2.2-.3.4-.5.6.6.8 1.2 1.6 1.8 2.5.7-.5 1.4-1.1 2.2-1.6 1.4-.8.4-3.1-1.1-2.8-4.4.8-9.1 4-13.6 2.5.2.8.4 1.6.6 2.4.7-1.2 1.7-2.1 2.9-2.7 1.6-1 .1-3.2-1.5-2.7-.8.2-1.6.4-2.4.6-1 .3-1.2 1.6-.7 2.4.2.4.5.7.7 1.1 1.1 1.7 3.6-.1 2.6-1.8-.2-.4-.5-.7-.7-1.1-.2.8-.5 1.6-.7 2.4l2.4-.6c-.5-.9-1-1.8-1.5-2.7-1.5.9-2.5 1.9-3.5 3.3-.5.8-.4 2.1.6 2.4 5.6 1.9 9.8-1.3 15.2-2.3-.4-.9-.7-1.9-1.1-2.8-1.6.9-1.5.8-2.8 2.2-1 1.1.4 3.1 1.8 2.5 1.3-.6 1.6-.9 2.3-2.2.3-.6.1-1.5-.4-1.9-.5-.3-1-.6-1.5-.9 0 .8-.1 1.7-.1 2.5 1.2-.7 1.3-.9 2.3-1.8s-.1-2.8-1.4-2.6c-1.9.4-1.9.4-3.7 1.2-1.3.6-1.4 3 .3 3 .9 0 1.8.1 2.7.1 0-1 0-2.1.1-3.1-3.6.7-7.2 1.4-10.8 2.1.2 1 .5 2 .7 3 4.6-1.4 9.2-2.3 14-2.8 2-.2 1.7-3.3-.4-3.1-7.6.5-15.1.9-22.7 1.4-1.3.1-2 2.1-.8 2.8 6.1 3.8 12.5 5.4 19.6 4.7-.2-1-.5-2-.7-3-5.8 2.7-10.8 6.6-11.7 13.3.9-.2 1.9-.5 2.8-.7-.5-.8-.9-1.6-1.4-2.4-.9-1.5-3.6-.1-2.7 1.5.8 1.5 1.6 3.1 2.4 4.6.7 1.3 2.2 1.3 2.9.1 2.2-3.7 4.7-7.2 7.3-10.6 1.2-1.6-1.1-3.5-2.4-2-2.1 2.3-3.7 4.6-5.1 7.4-.8 1.6 1.6 3.1 2.7 1.6 1.9-2.6 3.4-5.3 4.8-8.2.8-1.7-1.5-2.8-2.7-1.6-2.9 2.8-5.5 5.7-7.7 9.1.8.7 1.6 1.3 2.4 2 2.2-3.2 3.9-6.5 5.3-10.2.6-1.7-1.4-3-2.7-1.6-2 2.1-3.3 4.1-4.5 6.8l3 .9c.6-2.3 1.2-4.5 1.9-6.8.4-1.5-1.9-2.5-2.8-1.2-1.5 2.2-2.7 4.3-3.8 6.7 1 0 1.9 0 2.9.1-.6-2.5-1.4-5-2.2-7.5-.5-1.5-2.9-1.2-3 .3-.3 3 .1 5.5 1.5 8.1l2.7-1.5c-2.2-3.6-4.8-6.8-7.9-9.7-.4.9-.8 1.8-1.2 2.8 7.6 1.5 15 1.4 22.5-.4-.5-.9-.9-1.7-1.4-2.6-5.5 6.3-8.4 13.9-11 21.7.8-.2 1.6-.4 2.4-.6-3.2-3.1-5-8.2-7.1-12.1-1.9-3.6-3.8-7.2-5.7-10.8-.8-2.3-3.8-1.2-2.8.6z"/><path d="m851.1 461.4c-.7 1.9-1.5 3.8-2.2 5.7s2.2 3.2 2.9 1.3 1.5-3.8 2.2-5.7-2.2-3.2-2.9-1.3z"/><path d="m841.9 458.8c-1.3-.1-2.6-.1-3.9-.2-.8 0-1.7.4-1.8 1.3-.1.8.5 1.7 1.3 1.8 1.3.1 2.6.1 3.9.2.8 0 1.7-.4 1.8-1.3.1-.8-.5-1.7-1.3-1.8z"/><path d="m828.6 410.5c4.5 17.5 7.4 35.3 8.8 53.3.2 3.1 5.1 3.1 4.9 0-1.4-18.4-4.4-36.7-9-54.6-.8-3-5.5-1.7-4.7 1.3z"/></g><path d="m87.4 603h74.8c8.2 0 14.9 6.7 14.9 14.9v14.8c0 8.2-6.7 14.9-14.9 14.9h-74.8c-8.2 0-14.9-6.7-14.9-14.9v-14.8c0-8.3 6.7-14.9 14.9-14.9z" fill="#6c63ff"/></svg>