<svg enable-background="new 0 0 1350 1028" viewBox="0 0 1350 1028" xmlns="http://www.w3.org/2000/svg" xmlns:xlink="http://www.w3.org/1999/xlink"><linearGradient id="a"><stop offset="0" stop-color="#808080" stop-opacity=".25"/><stop offset=".54" stop-color="#808080" stop-opacity=".12"/><stop offset="1" stop-color="#808080" stop-opacity=".1"/></linearGradient><linearGradient id="b" gradientUnits="userSpaceOnUse" x1="1135.0999" x2="1135.0999" xlink:href="#a" y1="835" y2="728.7002"/><linearGradient id="c" gradientUnits="userSpaceOnUse" x1="695.5" x2="695.5" xlink:href="#a" y1="830.3999" y2="554.7998"/><path d="m1123.9 411.7c-22.3-95.6 79.7-232-69.1-267.5s-218.6 101-324.2 73-33.8-75.4-122.1-171.7-196.6-1.3-193.6 110.7 7.3 105.7-112.1 152-27.9 148.4 45.2 210-183.4 136.4-137.5 283.5 259.3 299.8 372.1 163.1 138.1-154.5 294.8-154.7c156.6-.2 350.9-44.2 342.4-153.6-9.7-123.9-64.4-109.4-95.9-244.8z" fill="#eabb39"/><path d="m699.7 649.5c56.7 0 149.2-11.1 193.2-30.2-4.8-17.2-15.7-44.9-26.1-69.8-13.2-31.7-96.8-53.6-146.6-53.6h-48c-50 0-133.6 22.1-146.7 53.8-10 24.2-20.6 50.8-25.9 66.4 45.3 21 140.5 33.4 200.1 33.4z" fill="#26262b"/><circle cx="698.8" cy="323.9" fill="#937fba" r="134.4"/><path d="m662.5 417.3h70.3c5.8 0 10.5 4.7 10.5 10.5v71.9c0 23.9-19.3 43.2-43.2 43.2h-5c-23.9 0-43.2-19.3-43.2-43.2v-71.8c0-5.8 4.7-10.5 10.5-10.5z" fill="#ffb399"/><path d="m699.4 477c15.1 0 30.1-2.9 44.2-8.5-1.5-23-20.5-40.9-43.6-40.9h-3.7c-22.6 0-41.5 17.3-43.6 39.8 14.7 6.3 30.6 9.6 46.7 9.6z" fill="#d18b6f" opacity=".37"/><circle cx="699" cy="347.9" fill="#ffb399" r="118.9"/><circle cx="707.2" cy="145.8" fill="#937fba" r="51.5"/><path d="m715.7 85.8c-12 0-23.6 4.1-32.8 11.7 25.1-13.3 56.2-3.8 69.6 21.3 11.5 21.6 6.2 48.3-12.7 63.9 25.1-13.3 34.6-44.5 21.3-69.6-8.9-16.8-26.4-27.3-45.4-27.3z" fill="#937fba"/><path d="m611.2 229.9s14.3 94.4 194.4 42.9l-88.6-77.2z" fill="#937fba"/><path d="m236.6 781.3h74c13.8 0 24.9 11.2 24.9 24.9v2.9c0 13.8-11.2 24.9-24.9 24.9h-74c-13.8 0-24.9-11.2-24.9-24.9v-2.9c0-13.7 11.1-24.9 24.9-24.9z" fill="#6c63ff"/><path d="m1170.2 747.7v-19h-94.9v87.8c0 10.2 8.3 18.5 18.5 18.5h57.9c10.2 0 18.5-8.3 18.5-18.5v-19.5c13.6 0 24.7-11.1 24.7-24.7s-11-24.7-24.7-24.6zm0 39.9v-30.4c8.4-.3 15.4 6.3 15.7 14.7s-6.3 15.4-14.7 15.7c-.3 0-.6 0-1 0z" fill="url(#b)" opacity=".7"/><path d="m1167.2 750.6c-12.4 0-22.5 10.1-22.5 22.5s10.1 22.5 22.5 22.5 22.5-10.1 22.5-22.5c.1-12.4-10-22.5-22.5-22.5zm0 36.5c-7.7 0-13.9-6.2-13.9-13.9s6.2-13.9 13.9-13.9 13.9 6.2 13.9 13.9c.1 7.6-6.2 13.9-13.9 13.9z" fill="#6c63ff"/><path d="m1167.2 750.6c-12.4 0-22.5 10.1-22.5 22.5s10.1 22.5 22.5 22.5 22.5-10.1 22.5-22.5c.1-12.4-10-22.5-22.5-22.5zm0 36.5c-7.7 0-13.9-6.2-13.9-13.9s6.2-13.9 13.9-13.9 13.9 6.2 13.9 13.9c.1 7.6-6.2 13.9-13.9 13.9z" opacity=".1"/><path d="m1080.5 733.3h86.7v80.2c0 9.4-7.6 17-17 17h-52.7c-9.4 0-17-7.6-17-17z" fill="#6c63ff"/><path d="m132.8 830.4h1125.4v38.1h-1125.4z" fill="#e0e0e0"/><path d="m481.5 554.8h428c14 0 25.3 11.3 25.3 25.3v225c0 14-11.3 25.3-25.3 25.3h-428c-14 0-25.3-11.3-25.3-25.3v-225c0-14 11.3-25.3 25.3-25.3z" fill="url(#c)" opacity=".7"/><path d="m511.7 559.9h367.7c25.8 0 46.8 20.9 46.8 46.8v176.9c0 25.8-20.9 46.8-46.8 46.8h-367.7c-25.8 0-46.8-20.9-46.8-46.8v-176.9c0-25.8 20.9-46.8 46.8-46.8z" fill="#878a96"/><circle cx="695.5" cy="695.2" fill="#fff" r="15.6"/><path d="m237.6 836.3h919v13.9h-919z" fill="#e0e0e0"/><path d="m237.6 836.3h919v4.6h-919z" opacity=".1"/><path d="m1151.6 733.3v80.2c0 9.3-7.6 16.9-16.9 16.9h8.7c9.3 0 16.9-7.6 16.9-16.9v-80.2z" opacity=".1"/><path d="m1097.5 668.7c-1.5 0-2.9.8-3.8 2-1.1 2.1.9 4.4 2.8 5.8 3.5 2.6 7.1 5.2 9.5 8.8s3.1 8.7.5 12.2c-3.4 4.6-11.4 5.6-12.2 11.2-.5 3.6 2.6 6.7 5.8 8.5 7.8 4.5 17.9 5.7 23.5 12.7 2.3-4.8 7.6-7.6 12.8-8.7s10.6-1.1 15.9-1.9c1.8 0 3.4-.9 4.4-2.4 1.5-3-2.7-6.6-1.3-9.6 1.1-2.3 4.4-2.1 6.7-3 3.9-1.5 5.5-6.5 4.4-10.5s-4.2-7.1-7.5-9.7c-8.7-7-19.3-11-30-13.9-5-1.4-10.8-3.5-16-3.7-5-.3-10.5 1.3-15.5 2.2z" fill="#fff" opacity=".46"/><path d="m980.8 495.9c-22.3-8.2-38.8 19.7-22 36 7.6 7.4 19.3 8 28.3 2.8 4.4-2.6 7.6-6.2 9.9-10.7 3.6-6.8 4.5-16.1 12.1-19.8 3.5-1.7 1.8-7.5-2.1-6.6-16.3 3.8-20.1 26.2-5.2 34.5 17.7 9.9 36.2-7.6 32.7-26.1-1.5-7.8-7.3-15.9-15.8-16.9-5.9-.7-15.3 3.5-14.8 10.6.6 8 14.1 10.1 20 9.9 11-.5 21.4-6.2 29.8-12.9 15.5-12.3 23.4-35.4 16.3-54.6-1.2-3.1-5.2-2.1-6.4.3-11 22.5-15.6 47.9-17.4 72.7-.9 12.5-1 25.1-.4 37.6.4 8.9-.6 19.9 6.7 26.3 1.5 1.3 3.8.5 4.8-.8 15.2-18.7 13.5-47.3-3.7-64.1-1 1.9-1.9 3.8-2.9 5.7 18.7-.7 36.4-14 44.2-30.9 6.7-14.4 10.2-36 3.1-50.9-1.2-2.5-4.4-2.5-6-.5-5.5 6.9-6.7 17.3-7.9 25.7-1.7 12.2-1.5 24.5-.5 36.8 1.2 15.8 3.1 31.7 4.7 47.5 1.2 11.3-.1 27.8 8.9 36.4 1.3 1.2 3.4 1.9 4.9.4 11-10.8 8.8-27.2 6.3-41.1-2.3-13.4-5.4-31.1-18.1-38.8-1.3 1.9-2.7 3.8-4 5.7 12 7 35.4 17.9 47 5 9.2-10.3 13-32.7-.1-41.3-1.6-1.1-3.7-.7-4.8.8-9.8 12.6-16.1 44.2 5 49.8 19 5 38.2-9 41.4-27.8.9-5.3 1.7-19.3-6-20.3-7.9-1-11.7 12.8-12.7 18.3-1.6 8.5-.9 21.5 5.7 28.1 6.8 6.8 18.6 4.4 26.5 1.5 4.2-1.6 1.2-7.8-3-6.3-8 3-17.2 4.2-21.1-5.3-2.3-5.7-2.3-12.4-.9-18.3.4-1.6 3-10.7 4.5-10.4.1 0 .7 7.1.7 6.6.1 5.2-1.4 10.5-4.2 15-5.6 9.2-17.2 14.7-27.9 12.4-16.9-3.6-9.1-30.5-2.1-39.3-1.6.3-3.2.6-4.8.8 9.3 6.1 5.7 25.6-2 32-9.2 7.6-28.3-2.1-36.9-7.1-3.8-2.3-7.8 3.4-4 5.7 10.3 6.1 12.6 20.4 14.7 31.3 2.3 11.5 6 28.3-3.4 37.5 1.6.1 3.3.3 4.9.4-4.9-4.7-5-11.1-5.7-17.4-.8-7-1.5-14.1-2.2-21.1-1.3-13-2.8-26-3.9-39.1-1-11.3-1.4-22.6-.2-33.9.9-8.5 1.6-19.6 7.1-26.5-2-.2-4-.3-6-.5 5.9 12.2 2.8 29.8-1.9 42-5.9 15.4-21.9 29.2-38.7 29.8-2.6.1-5.3 3.4-2.9 5.7 15.2 14.8 16.7 39.1 3.4 55.6 1.6-.3 3.2-.6 4.8-.8-3.8-3.3-3.1-10.9-3.4-15.5-.4-5.3-.6-10.5-.6-15.8-.1-11.3.3-22.6 1.4-33.8 2.1-21.8 6.7-43.7 16.3-63.5-2.1.1-4.3.2-6.4.3 3.3 8.8 1.6 22.5-1.9 31.1-4.9 12.2-20.1 22.8-32.7 25.6-3.2.7-6.8 1.2-10.1.7-3.9.2-5.8-1.7-5.5-5.7 3.3-1.5 6-1.1 8.2 1.2 7.8 4.8 7.7 16.9 2.7 23.8-5.4 7.5-19.3 8.9-24.2-.4-3.5-6.7.7-15.3 7.9-17-.7-2.2-1.4-4.4-2.1-6.6-13 6.2-10.5 23.8-22.4 30.6-9.2 5.3-20.7 2.1-24.2-8.4-3.9-11.8 7.6-21.8 19-17.7 4.1 2.1 6.4-4.5 2.2-6z" fill="#231f20"/><path d="m1113.4 621.8c2.5 6.5 5 13 7.5 19.4 1.7 4.4 3 9 6 12.7.8.9 2.6.7 3.1-.4 4.3-9 8.8-17.7 16.3-24.5 1.2-1.1.4-3.6-1.4-3.4-9.3 1-18.2.2-27.1-2.7-2-.6-3.1 1.9-1.9 3.3 3.2 3.8 5.7 7.9 7.8 12.4.9 2 4.5.6 3.6-1.4-1.1-2.9-1.4-5.3-.7-8.3-1.3 0-2.5 0-3.8 0 .7 3.2 1.3 6.4 1.7 9.6.2 1.8 2.8 1.9 3.6.5 1.6-2.6 3.1-4.7 5.1-7-1.1-.6-2.2-1.3-3.3-1.9-1.1 2.7-2.2 5.4-3.3 8.1-.9 2.1 2.5 3.4 3.6 1.5 1.6-2.7 3.5-4.9 5.9-6.9-1-.8-2-1.6-3.1-2.4-2.1 4.1-4.4 7.6-7.4 11.1-1.7 1.9 1.1 4.8 2.7 2.8 3.3-3.8 6.9-7.1 11-10.1-1-.8-2-1.6-3.1-2.4-2 3.1-4.1 5.9-6.6 8.7 1 .8 2 1.6 3.1 2.4 1.9-2.9 4.1-5.3 6.8-7.6-.9-.9-1.8-1.9-2.7-2.8-4 4.1-7.7 8.4-11.3 12.9 1.2.2 2.4.3 3.6.5-.8-2-1.5-4.1-2.3-6.1-1.2.5-2.4 1-3.6 1.4.5 1 .9 2.1 1.4 3.1.7 1.6 3.2 1.1 3.6-.4 1.7-6.7 7.5-9.9 13.7-12 2.1-.7 1.9-3.8-.5-3.9-7.8-.2-14.8-2.6-20.9-7.5-.5 1.1-1 2.2-1.4 3.3 9.5.5 18.9 1.1 28.4 1.6 0-1.3 0-2.6 0-3.9-6.3-.1-12.6.5-18.8 1.5-2.2.4-1.8 4 .5 3.9 4.6-.3 9.2-.6 13.7-1 2.1-.1 2.9-3.5.5-3.9-1.1-.2-2.2-.3-3.4-.5v3.8c1.3-.3 2.5-.5 3.8-.8-.5-1.1-.9-2.3-1.4-3.4-.8.4-1.6.9-2.3 1.3-1.1.5-1.4 2.3-.5 3.1.6.5 1.2.9 1.7 1.4-.1-.8-.2-1.6-.3-2.4-.2.2-.5.4-.7.6.6 1.1 1.2 2.2 1.9 3.3 1-.6 2-1.1 2.9-1.7 1.8-.7.9-3.8-.9-3.7-5.5.3-11.9 3.7-17.3 1.1.1 1 .2 2.1.4 3.1 1-1.4 2.4-2.4 4-2.9 2.2-1 .6-3.9-1.4-3.6-1 .1-2.1.3-3.1.4-1.3.2-1.7 1.8-1.2 2.9.2.5.5 1 .7 1.4 1.1 2.3 4.5.4 3.4-1.9-.2-.5-.5-1-.7-1.4-.4 1-.8 1.9-1.2 2.9 1-.1 2.1-.3 3.1-.4-.5-1.2-1-2.4-1.4-3.6-2 .9-3.3 1.9-4.8 3.5-.8.9-.9 2.5.4 3.1 6.6 3.2 12.3-.2 19.2-.6-.3-1.2-.6-2.5-.9-3.7-2.2.9-2 .8-3.8 2.3-1.5 1.2 0 4 1.9 3.3 1.7-.6 2.1-.9 3.1-2.4.4-.6.4-1.9-.3-2.4-.6-.5-1.2-.9-1.7-1.4-.2 1-.3 2.1-.5 3.1 1.6-.7 1.8-.9 3.2-1.9 1.3-1 .3-3.5-1.4-3.4-2.4.2-2.5.2-4.8.9-1.7.5-2.1 3.5 0 3.8 1.1.2 2.2.3 3.4.5.2-1.3.4-2.6.5-3.9-4.6.3-9.2.6-13.7 1 .2 1.3.3 2.6.5 3.9 5.9-1 11.8-1.5 17.8-1.4 2.5 0 2.6-3.8 0-3.9-9.5-.5-18.9-1.1-28.4-1.6-1.6-.1-2.8 2.3-1.4 3.3 7 5.6 14.8 8.5 23.7 8.7-.2-1.3-.3-2.6-.5-3.9-7.6 2.5-14.4 6.6-16.5 14.8 1.2-.1 2.4-.3 3.6-.4-.5-1-.9-2.1-1.4-3.1-.9-2-4.4-.7-3.6 1.4.8 2 1.5 4.1 2.3 6.1.6 1.7 2.5 1.9 3.6.5 3.3-4.2 6.9-8.2 10.6-12.1 1.8-1.8-.8-4.5-2.7-2.8-3 2.5-5.3 5.2-7.4 8.4-1.2 1.8 1.6 4.1 3.1 2.4 2.7-3 5.1-6.1 7.2-9.5 1.3-2-1.4-3.7-3.1-2.4-4 3-7.6 6.3-11 10.1.9.9 1.8 1.9 2.7 2.8 3.2-3.7 5.9-7.5 8.1-11.9 1-2-1.3-3.9-3.1-2.4-2.8 2.3-4.7 4.7-6.6 7.7l3.6 1.5c1.1-2.7 2.2-5.4 3.3-8.1.7-1.8-2-3.4-3.3-1.9-2.2 2.5-4.1 5-5.8 7.8 1.2.2 2.4.3 3.6.5-.4-3.2-1-6.4-1.7-9.6-.4-1.9-3.4-2-3.8 0-.8 3.7-.7 6.8.7 10.4 1.2-.5 2.4-1 3.6-1.4-2.2-4.8-5-9.2-8.4-13.2-.6 1.1-1.3 2.2-1.9 3.3 9.2 3 18.5 3.9 28.1 2.9-.5-1.1-.9-2.3-1.4-3.4-7.8 7-12.5 16-17 25.3 1-.1 2.1-.2 3.1-.4-3.5-4.4-5.1-10.9-7.1-16.1-1.8-4.7-3.7-9.5-5.5-14.2-.6-2.4-4.4-1.5-3.5.9z" fill="#231f20"/><path d="m1144.7 623c-1.2 2.3-2.4 4.5-3.6 6.8-1.2 2.2 2.2 4.3 3.4 2s2.4-4.5 3.6-6.8c1.2-2.2-2.2-4.3-3.4-2z" fill="#231f20"/><path d="m1133.6 618.4c-1.6-.3-3.2-.6-4.8-.8-1-.2-2.1.3-2.4 1.4-.3 1 .3 2.2 1.4 2.4 1.6.3 3.2.6 4.8.8 1 .2 2.1-.3 2.4-1.4.3-.9-.3-2.2-1.4-2.4z" fill="#231f20"/><path d="m1124.2 555.9c3 22.7 4.1 45.6 3.1 68.5-.2 3.9 6 3.9 6.1 0 .9-22.9-.1-45.8-3.1-68.5-.5-3.8-6.6-3.9-6.1 0z" fill="#231f20"/><path d="m188.3 862.9h1031.8v16.5h-1031.8z" opacity=".16"/><circle cx="631.4" cy="338.1" fill="none" r="50.5" stroke="#fcd7d4" stroke-miterlimit="10" stroke-width="13.47"/><circle cx="755.7" cy="341.2" fill="none" r="50.5" stroke="#fcd7d4" stroke-miterlimit="10" stroke-width="13.47"/><path d="m555.4 315.8h26.8v19.4h-26.8z" fill="#fcd7d4"/><path d="m806.7 317.3h31v19.4h-31z" fill="#fcd7d4"/><path d="m680.9 334.5h26.8v19.4h-26.8z" fill="#fcd7d4"/><path d="m278.2 795.1s-2.3-128-74.2-202.5c-30.1-31.3-49.6-70.4-54.2-112.3-2.1-19.8-2.4-39.8-.7-59.6" fill="none" stroke="#535461" stroke-miterlimit="10" stroke-width="3.4488"/><g fill="#6c63ff"><path d="m104.2 373.4c4.7 14.4 46 48.6 46 48.6s13.7-49.5 8.9-64c-4.8-14.4-20.9-22.7-36.1-18.4-15.1 4.2-23.5 19.4-18.8 33.8z"/><path d="m85.1 466.1c12.2 9.8 66.1 17.6 66.1 17.6s-17.1-49.1-29.3-58.9-30.4-8.5-40.5 2.9-8.5 28.6 3.7 38.4z"/><path d="m132.1 602.2c15.7 2.7 65.8-16.2 65.8-16.2s-40.8-34.6-56.5-37.4-30.5 7.1-33.1 21.9 8.1 28.9 23.8 31.7z"/><path d="m192 697.9c15 5.2 68-5.4 68-5.4s-34.1-40.6-49.1-45.7-31.4 2-36.6 16.2 2.7 29.8 17.7 34.9z"/><path d="m209.8 470.3c-7.6 13.1-54.8 37.7-54.8 37.7s-3.4-51.4 4.2-64.5 25-17.7 39-10.3c13.9 7.4 19.1 24 11.6 37.1z"/><path d="m278.3 583.2c-11.4 10.3-64.5 20.3-64.5 20.3s13.1-49.7 24.4-60c11.8-10.3 29.5-9.8 40.7 1.2 10.5 10 10.9 26.6.9 37.1-.4.4-.9.9-1.5 1.4z"/><path d="m329.2 701.2c-9.4 12-59.8 30.3-59.8 30.3s3.9-51.2 13.3-63.2 27.4-14.4 40.2-5.3 15.7 26.2 6.3 38.2z"/></g><path d="m104.2 373.4c4.7 14.4 46 48.6 46 48.6s13.7-49.5 8.9-64c-4.8-14.4-20.9-22.7-36.1-18.4-15.1 4.2-23.5 19.4-18.8 33.8z" opacity=".25"/><path d="m85.1 466.1c12.2 9.8 66.1 17.6 66.1 17.6s-17.1-49.1-29.3-58.9-30.4-8.5-40.5 2.9-8.5 28.6 3.7 38.4z" opacity=".25"/><path d="m132.1 602.2c15.7 2.7 65.8-16.2 65.8-16.2s-40.8-34.6-56.5-37.4-30.5 7.1-33.1 21.9 8.1 28.9 23.8 31.7z" opacity=".25"/><path d="m192 697.9c15 5.2 68-5.4 68-5.4s-34.1-40.6-49.1-45.7-31.4 2-36.6 16.2 2.7 29.8 17.7 34.9z" opacity=".25"/><path d="m209.8 470.3c-7.6 13.1-54.8 37.7-54.8 37.7s-3.4-51.4 4.2-64.5 25-17.7 39-10.3c13.9 7.4 19.1 24 11.6 37.1z" opacity=".25"/><path d="m278.3 583.2c-11.4 10.3-64.5 20.3-64.5 20.3s13.1-49.7 24.4-60c11.8-10.3 29.5-9.8 40.7 1.2 10.5 10 10.9 26.6.9 37.1-.4.4-.9.9-1.5 1.4z" opacity=".25"/><path d="m329.2 701.2c-9.4 12-59.8 30.3-59.8 30.3s3.9-51.2 13.3-63.2 27.4-14.4 40.2-5.3 15.7 26.2 6.3 38.2z" opacity=".25"/><path d="m276 791.4s52.6-117 18.4-212.2c-14.4-39.9-15.6-82.9-1.9-122.6 6.5-18.9 14.9-37.1 24.9-54.3" fill="none" stroke="#535461" stroke-miterlimit="10" stroke-width="3.4488"/><path d="m296.1 342.1c-1.8 14.9 21.6 61.7 21.6 61.7s33.8-39.7 35.6-54.6-9.5-28.6-25.3-30.6-30.1 8.6-31.9 23.5z" fill="#6c63ff"/><path d="m238.9 418.9c7.1 13.6 53.3 41.3 53.3 41.3s5.3-51.1-1.8-64.7c-7.5-13.7-24.3-19.4-38.6-12.9-13.3 5.7-19.5 21.1-13.8 34.5.3.6.6 1.2.9 1.8z" fill="#6c63ff"/><path d="m224 560.3c13.3 8.5 67.6 10.5 67.6 10.5s-22.8-47.1-36-55.6c-13.3-8.5-31.1-5.3-39.8 7.2-8.8 12.5-5.1 29.4 8.2 37.9z" fill="#6c63ff"/><path d="m238.1 670.2c11.6 10.5 65 21.2 65 21.2s-14.1-50-25.7-60.4c-11.6-10.5-29.3-10.2-40.6.6-10.3 10.2-10.4 26.8-.2 37.1z" fill="#6c63ff"/><path d="m352 470.5c-12.6 9-66.7 13.2-66.7 13.2s18.9-47.9 31.5-56.9c12.9-8.9 30.4-6.5 40.4 5.6 9.2 11.1 7.7 27.6-3.4 36.8-.7.5-1.3.9-1.8 1.3z" fill="#6c63ff"/><path d="m366.8 599.2c-14.9 5-68.1-6.4-68.1-6.4s33.3-40.1 48.2-45.1c14.9-4.9 31.5 2.5 37 16.7 5.4 14.3-2.2 29.8-17.1 34.8z" fill="#6c63ff"/><path d="m363.2 725.8c-13.8 7.3-68.1 4.6-68.1 4.6s25.5-45 39.3-52.3c13.9-7.3 31-2.6 39.3 10.7 7.5 12.3 3.6 28.5-8.7 36-.6.4-1.2.7-1.8 1z" fill="#6c63ff"/></svg>